<?xml version="1.0" standalone="no"?>
<!DOCTYPE svg PUBLIC "-//W3C//DTD SVG 20010904//EN"
        "http://www.w3.org/TR/2001/REC-SVG-20010904/DTD/svg10.dtd">
<svg version="1.0" xmlns="http://www.w3.org/2000/svg"
     width="700.000000pt" height="700.000000pt" viewBox="0 0 700.000000 700.000000"
     preserveAspectRatio="xMidYMid meet">
    <metadata>
        Created by potrace 1.14, written by Peter Selinger 2001-2017
    </metadata>
    <g transform="translate(0.000000,700.000000) scale(0.100000,-0.100000)"
       fill="#000000" stroke="none">
        <path d="M1390 5775 c-317 -43 -547 -127 -789 -289 -313 -209 -520 -509 -586
-846 -12 -63 -14 -248 -14 -1130 0 -1142 -1 -1117 55 -1295 103 -329 377 -633
729 -808 94 -47 280 -119 344 -132 9 -2 47 -11 84 -20 73 -17 97 -21 217 -35
73 -8 371 -6 420 4 14 2 45 7 70 10 143 18 370 91 523 167 93 46 226 127 252
152 6 7 28 23 48 37 49 34 203 192 254 261 23 31 64 95 91 142 l50 87 46 -83
c97 -172 248 -338 418 -460 175 -125 473 -254 653 -283 22 -3 43 -8 46 -9 3
-2 28 -7 55 -10 27 -4 60 -9 74 -13 14 -3 598 -8 1298 -9 l1272 -4 0 1041 0
1040 -307 0 c-938 0 -2221 7 -2243 12 -14 4 -44 9 -67 12 -169 22 -406 106
-566 202 -296 178 -503 456 -563 757 -2 12 -6 60 -9 107 -17 278 -36 373 -112
540 -195 430 -692 775 -1218 846 -22 3 -47 8 -55 11 -34 11 -379 11 -470 -2z
m470 -209 c19 -3 49 -8 65 -10 57 -10 220 -55 289 -81 382 -144 671 -426 775
-755 19 -60 25 -86 37 -165 7 -44 6 -197 -1 -245 -22 -146 -86 -305 -175 -435
-49 -71 -213 -245 -231 -245 -4 0 -10 240 -11 533 -4 588 -4 582 -73 733 -95
207 -286 392 -518 499 -77 36 -243 93 -292 101 -16 2 -58 10 -92 17 -74 16
-144 21 -280 22 -150 0 -132 12 47 32 30 3 57 7 59 10 7 5 358 -4 401 -11z
m-385 -240 c230 -19 466 -102 625 -219 113 -84 210 -203 256 -318 99 -242 35
-518 -161 -697 -86 -79 -235 -155 -342 -175 l-33 -7 0 454 c0 449 0 454 -22
481 -56 72 -279 119 -450 95 -218 -31 -399 -158 -486 -340 -22 -47 -45 -107
-50 -135 -6 -29 -11 -238 -12 -499 0 -248 -2 -452 -4 -454 -13 -13 -191 122
-283 215 -275 277 -372 643 -263 995 47 153 220 334 431 450 96 53 288 121
384 135 17 2 36 6 44 9 7 2 59 7 115 10 55 4 102 8 104 9 2 2 22 1 147 -9z
m88 -598 c23 -5 44 -13 47 -18 4 -6 5 -752 1 -807 -2 -19 -132 1 -242 37 -151
51 -264 141 -321 258 -30 61 -33 75 -33 157 1 110 28 179 102 253 104 104 292
155 446 120z m840 -980 c-1 -133 -2 -248 -2 -255 -2 -23 -222 -114 -371 -153
-154 -40 -478 -58 -620 -36 -25 4 -58 10 -75 12 -16 3 -59 12 -95 20 -36 9
-74 17 -84 20 -11 2 -48 13 -83 25 l-63 21 0 86 c0 48 -2 160 -3 250 -1 89 0
162 3 162 2 0 29 -17 60 -39 292 -205 723 -231 1055 -64 88 44 184 112 232
163 19 22 38 38 42 36 3 -2 5 -114 4 -248z m-2121 -73 l55 -70 0 -158 c0 -96
5 -168 12 -185 22 -53 90 -72 147 -41 33 17 51 67 49 137 0 34 1 62 3 62 2 0
29 -17 60 -38 31 -21 76 -49 100 -62 l42 -24 1 -130 c1 -72 1 -139 0 -148 -3
-25 28 -74 55 -89 28 -15 75 -14 103 1 38 20 51 62 51 170 0 55 2 100 3 100 2
0 30 -9 61 -20 32 -11 88 -27 124 -36 37 -8 74 -17 82 -20 13 -3 15 -25 15
-121 -1 -65 3 -130 8 -146 23 -70 124 -88 174 -31 24 28 24 31 24 185 l0 76
168 0 167 0 -1 -91 c-1 -123 3 -142 35 -176 34 -36 79 -40 127 -10 41 24 43
37 46 189 2 101 5 125 17 127 47 7 216 54 252 69 15 6 16 -4 16 -92 0 -115 10
-146 53 -172 32 -20 53 -20 99 -1 47 20 53 43 55 209 1 122 5 157 16 163 8 5
54 33 102 63 49 30 89 55 90 55 1 0 2 -30 1 -67 0 -38 5 -80 13 -95 30 -62
118 -72 165 -19 l28 31 0 169 0 169 48 57 c26 32 56 69 67 82 l20 24 -1 -628
c-1 -345 -4 -655 -7 -688 -9 -87 -52 -228 -99 -322 -183 -366 -598 -634 -1083
-700 -75 -10 -370 -11 -447 -1 -617 79 -1114 498 -1184 998 -12 90 -11 1342 1
1327 6 -6 36 -43 67 -82z m3010 30 c26 -40 27 -42 26 -212 0 -148 2 -176 18
-202 39 -66 137 -62 176 8 9 16 15 50 14 89 -1 60 8 86 23 66 3 -5 24 -24 46
-41 l40 -31 -1 -164 c-1 -111 3 -173 12 -195 31 -79 152 -79 185 0 7 16 12 74
11 136 l-1 108 91 -39 c50 -21 104 -42 119 -45 33 -6 31 11 31 -203 0 -162 10
-199 59 -222 37 -19 78 -12 115 17 l29 23 3 161 4 161 35 -6 c20 -3 45 -7 56
-10 27 -5 139 -14 200 -17 34 -1 47 -6 48 -17 1 -8 2 -81 3 -162 1 -132 3
-149 22 -175 27 -36 81 -51 124 -33 52 21 60 51 63 227 l2 158 168 0 c92 1
168 -2 168 -5 1 -3 3 -75 4 -160 2 -168 7 -190 55 -215 35 -18 64 -19 93 -3
57 30 63 54 61 240 -1 92 3 138 10 141 6 2 83 3 171 3 l160 -1 3 -163 c3 -180
9 -200 63 -223 42 -17 96 -2 123 34 18 25 21 43 22 185 1 86 2 159 3 162 1 7
141 7 142 0 1 -3 2 -377 3 -832 l1 -828 -135 -1 c-566 -2 -1397 1 -1455 6
-315 26 -642 155 -860 339 -215 181 -342 389 -389 638 -20 102 -23 1376 -3
1356 6 -7 24 -31 39 -53z m3499 -635 c4 -76 1 -1641 -3 -1645 -4 -4 -420 -9
-474 -6 -8 1 -11 229 -11 829 0 455 1 829 2 832 2 3 112 5 244 5 209 0 241 -2
242 -15z"/>
    </g>
</svg>
